SplineFontDB: 3.2
FontName: IFEI-Data
FullName: IFEI-Data
FamilyName: IFEI-Data
Weight: Regular
Copyright: Copyright (c) 2024, scuba82
UComments: "2024-1-20: Created with FontForge (http://fontforge.org)"
Version: 001.000
ItalicAngle: 0
UnderlinePosition: -102
UnderlineWidth: 51
Ascent: 819
Descent: 205
InvalidEm: 0
LayerCount: 2
Layer: 0 0 "Hinten" 1
Layer: 1 0 "Vorne" 0
XUID: [1021 228 -1044774692 23491]
StyleMap: 0x0000
FSType: 0
OS2Version: 0
OS2_WeightWidthSlopeOnly: 0
OS2_UseTypoMetrics: 1
CreationTime: 1705790171
ModificationTime: 1707084704
OS2TypoAscent: 0
OS2TypoAOffset: 1
OS2TypoDescent: 0
OS2TypoDOffset: 1
OS2TypoLinegap: 92
OS2WinAscent: 0
OS2WinAOffset: 1
OS2WinDescent: 0
OS2WinDOffset: 1
HheadAscent: 0
HheadAOffset: 1
HheadDescent: 0
HheadDOffset: 1
OS2Vendor: 'PfEd'
MarkAttachClasses: 1
DEI: 91125
LangName: 1033
Encoding: UnicodeBmp
UnicodeInterp: none
NameList: AGL For New Fonts
DisplaySize: -48
AntiAlias: 1
FitToEm: 0
WinInfo: 0 27 9
BeginPrivate: 0
EndPrivate
TeXData: 1 0 0 1048576 524288 349525 0 1048576 349525 783286 444596 497025 792723 393216 433062 380633 303038 157286 324010 404750 52429 2506097 1059062 262144
BeginChars: 65536 32

StartChar: plus
Encoding: 43 43 0
Width: 895
Flags: HW
HStem: 246 125<132 226 457 547>
VStem: 274 135<-60 101 520 681>
LayerCount: 2
Fore
SplineSet
355 312 m 1
 457 370 l 1
 547 370 l 1
 646 313 l 1
 646 305 l 1
 553 250 l 1
 451 250 l 1
 355 304 l 1
 355 312 l 1
37 313 m 1
 132 371 l 1
 226 371 l 1
 327 313 l 1
 327 305 l 1
 226 246 l 1
 132 246 l 1
 37 304 l 1
 37 313 l 1
276 520 m 1
 276 681 l 1
 407 681 l 1
 407 520 l 1
 349 369 l 1
 334 369 l 1
 276 520 l 1
274 101 m 1
 334 246 l 1
 349 246 l 1
 409 101 l 1
 409 -60 l 1
 274 -60 l 1
 274 101 l 1
EndSplineSet
Validated: 1
EndChar

StartChar: zero
Encoding: 48 48 1
Width: 895
Flags: HW
HStem: -205 141<34.9774 123> -205 124<123.004 545> 674 145<47.5075 123> 688 131<123.004 541>
VStem: 0 123<-81 -64 -52 231 376 659 674 688> 552 123<-73 237 377 768.623>
LayerCount: 2
Fore
SplineSet
541 688 m 1x1c
 137 688 l 2x1c
 129 688 123 682 123 674 c 1
 0 674 l 1
 0 725 l 2
 0 790 85 819 107 819 c 2x2c
 541 819 l 1
 541 688 l 1x1c
551 819 m 1
 567 819 l 2
 611 819 675 761 675 725 c 2
 675 318 l 1
 646 318 l 1
 551 377 l 1
 551 819 l 1
28 317 m 1
 0 317 l 1
 0 659 l 1
 123 659 l 1
 123 376 l 1
 28 317 l 1
639 288 m 1
 675 288 l 1
 675 -176 l 1
 654 -176 l 1
 552 -73 l 1
 552 237 l 1
 639 288 l 1
0 -52 m 1
 0 289 l 1
 30 289 l 1
 124 231 l 1
 124 -52 l 1
 0 -52 l 1
138 -81 m 2x4c
 545 -81 l 1
 647 -183 l 1
 647 -205 l 1x4c
 102 -205 l 2
 45 -205 0 -164 0 -112 c 2
 0 -64 l 1
 123 -64 l 1x8c
 123 -74 129 -81 138 -81 c 2x4c
EndSplineSet
Validated: 1
EndChar

StartChar: one
Encoding: 49 49 2
Width: 895
Flags: W
HStem: 799 20G<551 589>
VStem: 552 123<-73 237 377 768.623>
LayerCount: 2
Fore
SplineSet
551 819 m 1
 567 819 l 2
 611 819 675 761 675 725 c 2
 675 318 l 1
 646 318 l 1
 551 377 l 1
 551 819 l 1
639 288 m 1
 675 288 l 1
 675 -176 l 1
 654 -176 l 1
 552 -73 l 1
 552 237 l 1
 639 288 l 1
EndSplineSet
EndChar

StartChar: two
Encoding: 50 50 3
Width: 895
Flags: HW
HStem: -205 141<34.9774 123> -205 124<123.004 545> 245 124<129 544> 674 145<47.5075 123> 688 131<123.004 541>
VStem: 0 124<-81 -64 -52 231 674 688> 551 124<377 768.623>
LayerCount: 2
Fore
SplineSet
541 688 m 1x2e
 137 688 l 2x2e
 129 688 123 682 123 674 c 1
 0 674 l 1
 0 725 l 2
 0 790 85 819 107 819 c 2x36
 541 819 l 1
 541 688 l 1x2e
551 819 m 1
 567 819 l 2
 611 819 675 761 675 725 c 2
 675 318 l 1
 646 318 l 1
 551 377 l 1
 551 819 l 1
647 303 m 1
 544 245 l 1
 129 245 l 1
 29 303 l 1
 129 369 l 1
 544 369 l 1
 647 303 l 1
0 -52 m 1
 0 289 l 1
 30 289 l 1
 124 231 l 1
 124 -52 l 1
 0 -52 l 1
138 -81 m 2x66
 545 -81 l 1
 647 -183 l 1
 647 -205 l 1x66
 102 -205 l 2
 45 -205 0 -164 0 -112 c 2
 0 -64 l 1
 123 -64 l 1xa6
 123 -74 129 -81 138 -81 c 2x66
EndSplineSet
Validated: 1
EndChar

StartChar: three
Encoding: 51 51 4
Width: 895
Flags: HW
HStem: -205 141<34.9774 123> -205 124<123.004 545> 245 124<129 544> 674 145<47.5075 123> 688 131<123.004 541>
VStem: 552 123<-73 237 377 768.623>
LayerCount: 2
Fore
SplineSet
541 688 m 1x2c
 137 688 l 2x2c
 129 688 123 682 123 674 c 1
 0 674 l 1
 0 725 l 2
 0 790 85 819 107 819 c 2x34
 541 819 l 1
 541 688 l 1x2c
551 819 m 1
 567 819 l 2
 611 819 675 761 675 725 c 2
 675 318 l 1
 646 318 l 1
 551 377 l 1
 551 819 l 1
647 303 m 1
 544 245 l 1
 129 245 l 1
 29 303 l 1
 129 369 l 1
 544 369 l 1
 647 303 l 1
639 288 m 1
 675 288 l 1
 675 -176 l 1
 654 -176 l 1
 552 -73 l 1
 552 237 l 1
 639 288 l 1
138 -81 m 2x64
 545 -81 l 1
 647 -183 l 1
 647 -205 l 1x64
 102 -205 l 2
 45 -205 0 -164 0 -112 c 2
 0 -64 l 1
 123 -64 l 1xa4
 123 -74 129 -81 138 -81 c 2x64
EndSplineSet
Validated: 1
EndChar

StartChar: four
Encoding: 52 52 5
Width: 895
Flags: HW
HStem: -205 21G<653.189 694> -205 21G<653.189 694> 228 128<133 559> 799 20G<567 607>
VStem: 0 127<364 655> 568 126<-99 220 364 767.655>
LayerCount: 2
Fore
SplineSet
567 819 m 1x3c
 584 819 l 2
 630 819 694 760 694 723 c 2
 694 304 l 1
 665 304 l 1
 567 364 l 1
 567 819 l 1x3c
666 289 m 1
 559 228 l 1
 133 228 l 1
 29 288 l 1
 133 356 l 1
 559 356 l 1
 666 289 l 1
29 303 m 1
 0 303 l 1
 0 655 l 1
 127 655 l 1
 127 364 l 1
 29 303 l 1
657 273 m 1
 694 273 l 1
 694 -205 l 1
 673 -205 l 1xbc
 568 -99 l 1
 568 220 l 1
 657 273 l 1
EndSplineSet
Validated: 1
EndChar

StartChar: five
Encoding: 53 53 6
Width: 895
Flags: HW
HStem: -205 141<34.9774 123> -205 124<123.004 545> 245 124<129 544> 674 145<47.5075 123> 688 131<123.004 541>
VStem: 0 123<-81 -64 376 659 674 688> 552 123<-73 237>
LayerCount: 2
Fore
SplineSet
541 688 m 1x2e
 137 688 l 2x2e
 129 688 123 682 123 674 c 1
 0 674 l 1
 0 725 l 2
 0 790 85 819 107 819 c 2x36
 541 819 l 1
 541 688 l 1x2e
647 303 m 1
 544 245 l 1
 129 245 l 1
 29 303 l 1
 129 369 l 1
 544 369 l 1
 647 303 l 1
28 317 m 1
 0 317 l 1
 0 659 l 1
 123 659 l 1
 123 376 l 1
 28 317 l 1
639 288 m 1
 675 288 l 1
 675 -176 l 1
 654 -176 l 1
 552 -73 l 1
 552 237 l 1
 639 288 l 1
138 -81 m 2x66
 545 -81 l 1
 647 -183 l 1
 647 -205 l 1x66
 102 -205 l 2
 45 -205 0 -164 0 -112 c 2
 0 -64 l 1
 123 -64 l 1xa6
 123 -74 129 -81 138 -81 c 2x66
EndSplineSet
Validated: 1
EndChar

StartChar: six
Encoding: 54 54 7
Width: 895
Flags: HW
HStem: -205 141<34.9774 123> -205 124<123.004 545> 245 124<129 544> 674 145<47.5075 123> 688 131<123.004 541>
VStem: 0 123<-81 -64 -52 231 376 659 674 688> 552 123<-73 237>
LayerCount: 2
Fore
SplineSet
541 688 m 1x2e
 137 688 l 2x2e
 129 688 123 682 123 674 c 1
 0 674 l 1
 0 725 l 2
 0 790 85 819 107 819 c 2x36
 541 819 l 1
 541 688 l 1x2e
647 303 m 1
 544 245 l 1
 129 245 l 1
 29 303 l 1
 129 369 l 1
 544 369 l 1
 647 303 l 1
28 317 m 1
 0 317 l 1
 0 659 l 1
 123 659 l 1
 123 376 l 1
 28 317 l 1
639 288 m 1
 675 288 l 1
 675 -176 l 1
 654 -176 l 1
 552 -73 l 1
 552 237 l 1
 639 288 l 1
0 -52 m 1
 0 289 l 1
 30 289 l 1
 124 231 l 1
 124 -52 l 1
 0 -52 l 1
138 -81 m 2x66
 545 -81 l 1
 647 -183 l 1
 647 -205 l 1x66
 102 -205 l 2
 45 -205 0 -164 0 -112 c 2
 0 -64 l 1
 123 -64 l 1xa6
 123 -74 129 -81 138 -81 c 2x66
EndSplineSet
Validated: 1
EndChar

StartChar: seven
Encoding: 55 55 8
Width: 895
Flags: HW
HStem: -205 21G<653.189 694> -205 21G<653.189 694> 669 150<49.0778 126> 684 135<126.005 556>
VStem: 568 126<-99 220 364 767.655>
LayerCount: 2
Fore
SplineSet
556 684 m 1x18
 141 684 l 2x18
 133 684 126 677 126 669 c 1
 0 669 l 1
 0 723 l 2
 0 790 88 819 110 819 c 2x28
 556 819 l 1
 556 684 l 1x18
567 819 m 1
 584 819 l 2
 630 819 694 760 694 723 c 2
 694 304 l 1
 665 304 l 1
 567 364 l 1
 567 819 l 1
657 273 m 1
 694 273 l 1
 694 -205 l 1
 673 -205 l 1x88
 568 -99 l 1
 568 220 l 1
 657 273 l 1
EndSplineSet
Validated: 1
EndChar

StartChar: eight
Encoding: 56 56 9
Width: 895
Flags: HW
HStem: -205 141<34.9774 123> -205 124<123.004 545> 245 124<129 544> 674 145<47.5075 123> 688 131<123.004 541>
VStem: 0 123<-81 -64 -52 231 376 659 674 688> 552 123<-73 237 377 768.623>
LayerCount: 2
Fore
SplineSet
541 688 m 1x2e
 137 688 l 2x2e
 129 688 123 682 123 674 c 1
 0 674 l 1
 0 725 l 2
 0 790 85 819 107 819 c 2x36
 541 819 l 1
 541 688 l 1x2e
551 819 m 1
 567 819 l 2
 611 819 675 761 675 725 c 2
 675 318 l 1
 646 318 l 1
 551 377 l 1
 551 819 l 1
647 303 m 1
 544 245 l 1
 129 245 l 1
 29 303 l 1
 129 369 l 1
 544 369 l 1
 647 303 l 1
28 317 m 1
 0 317 l 1
 0 659 l 1
 123 659 l 1
 123 376 l 1
 28 317 l 1
639 288 m 1
 675 288 l 1
 675 -176 l 1
 654 -176 l 1
 552 -73 l 1
 552 237 l 1
 639 288 l 1
0 -52 m 1
 0 289 l 1
 30 289 l 1
 124 231 l 1
 124 -52 l 1
 0 -52 l 1
138 -81 m 2x66
 545 -81 l 1
 647 -183 l 1
 647 -205 l 1x66
 102 -205 l 2
 45 -205 0 -164 0 -112 c 2
 0 -64 l 1
 123 -64 l 1xa6
 123 -74 129 -81 138 -81 c 2x66
EndSplineSet
Validated: 1
EndChar

StartChar: nine
Encoding: 57 57 10
Width: 895
Flags: HW
HStem: -205 141<34.9774 123> -205 124<123.004 545> 245 124<129 544> 674 145<47.5075 123> 688 131<123.004 541>
VStem: 0 123<-81 -64 376 659 674 688> 552 123<-73 237 377 768.623>
LayerCount: 2
Fore
SplineSet
541 688 m 1x2e
 137 688 l 2x2e
 129 688 123 682 123 674 c 1
 0 674 l 1
 0 725 l 2
 0 790 85 819 107 819 c 2x36
 541 819 l 1
 541 688 l 1x2e
551 819 m 1
 567 819 l 2
 611 819 675 761 675 725 c 2
 675 318 l 1
 646 318 l 1
 551 377 l 1
 551 819 l 1
647 303 m 1
 544 245 l 1
 129 245 l 1
 29 303 l 1
 129 369 l 1
 544 369 l 1
 647 303 l 1
28 317 m 1
 0 317 l 1
 0 659 l 1
 123 659 l 1
 123 376 l 1
 28 317 l 1
639 288 m 1
 675 288 l 1
 675 -176 l 1
 654 -176 l 1
 552 -73 l 1
 552 237 l 1
 639 288 l 1
138 -81 m 2x66
 545 -81 l 1
 647 -183 l 1
 647 -205 l 1x66
 102 -205 l 2
 45 -205 0 -164 0 -112 c 2
 0 -64 l 1
 123 -64 l 1xa6
 123 -74 129 -81 138 -81 c 2x66
EndSplineSet
Validated: 1
EndChar

StartChar: A
Encoding: 65 65 11
Width: 952
Flags: HW
HStem: -205 21G<710.476 751.287> -205 21G<710.476 751.287> 228 128<190.287 616.287> 669 150<106.365 183.287> 684 135<183.292 613.287>
VStem: 57 127<-77 214 364 655 669 684> 625 126<-99 220 364 767.655>
LayerCount: 2
Fore
SplineSet
613 684 m 1x2e
 198 684 l 2x2e
 190 684 183 677 183 669 c 1
 57 669 l 1
 57 723 l 2
 57 790 145 819 167 819 c 2x36
 613 819 l 1
 613 684 l 1x2e
624 819 m 1
 641 819 l 2
 687 819 751 760 751 723 c 2
 751 304 l 1
 722 304 l 1
 624 364 l 1
 624 819 l 1
723 289 m 1
 616 228 l 1
 190 228 l 1
 86 288 l 1
 190 356 l 1
 616 356 l 1
 723 289 l 1
86 303 m 1
 57 303 l 1
 57 655 l 1
 184 655 l 1
 184 364 l 1
 86 303 l 1
714 273 m 1
 751 273 l 1
 751 -205 l 1
 730 -205 l 1xa6
 625 -99 l 1
 625 220 l 1
 714 273 l 1
57 -77 m 1
 57 274 l 1
 87 274 l 1
 184 214 l 1
 184 -77 l 1
 57 -77 l 1
EndSplineSet
Validated: 1
EndChar

StartChar: C
Encoding: 67 67 12
Width: 895
Flags: HW
HStem: -205 141<34.9774 123> -205 124<123.004 545> 674 145<47.5075 123> 688 131<123.004 541>
VStem: 0 123<-81 -64 -52 231 376 659 674 688>
LayerCount: 2
Fore
SplineSet
541 688 m 1x18
 137 688 l 2x18
 129 688 123 682 123 674 c 1
 0 674 l 1
 0 725 l 2
 0 790 85 819 107 819 c 2x28
 541 819 l 1
 541 688 l 1x18
28 317 m 1
 0 317 l 1
 0 659 l 1
 123 659 l 1
 123 376 l 1
 28 317 l 1
0 -52 m 1
 0 289 l 1
 30 289 l 1
 124 231 l 1
 124 -52 l 1
 0 -52 l 1
138 -81 m 2x48
 545 -81 l 1
 647 -183 l 1
 647 -205 l 1x48
 102 -205 l 2
 45 -205 0 -164 0 -112 c 2
 0 -64 l 1
 123 -64 l 1x88
 123 -74 129 -81 138 -81 c 2x48
EndSplineSet
Validated: 1
EndChar

StartChar: D
Encoding: 68 68 13
Width: 760
Flags: HW
HStem: -205 132<66 407 422 422.374> 695 124<67 406>
VStem: 151 134<-60 101 520 681> 436 124<-72.9956 245 377 679>
LayerCount: 2
Fore
SplineSet
0 796 m 1
 0 819 l 1
 472 819 l 1
 472 790 l 1
 406 695 l 1
 67 695 l 1
 0 796 l 1
152 520 m 1
 152 681 l 1
 284 681 l 1
 284 520 l 1
 226 369 l 1
 210 369 l 1
 152 520 l 1
516 326 m 1
 436 377 l 1
 436 679 l 1
 421 697 l 1
 421 702 l 1
 494 804 l 1
 500 804 l 2
 516 804 560 746 560 717 c 2
 560 326 l 1
 516 326 l 1
422 -73 m 1
 430 -73 436 -67 436 -59 c 2
 436 245 l 1
 523 297 l 1
 560 297 l 1
 560 -96 l 2
 560 -132 518 -182 501 -182 c 2
 494 -182 l 1
 422 -80 l 1
 422 -73 l 1
66 -73 m 1
 407 -73 l 1
 472 -168 l 1
 472 -205 l 1
 1 -205 l 1
 1 -176 l 1
 66 -73 l 1
151 101 m 1
 211 246 l 1
 226 246 l 1
 285 101 l 1
 285 -60 l 1
 151 -60 l 1
 151 101 l 1
EndSplineSet
Validated: 1
EndChar

StartChar: E
Encoding: 69 69 14
Width: 895
Flags: HW
HStem: -205 141<34.9774 123> -205 124<123.004 545> 245 124<129 544> 674 145<47.5075 123> 688 131<123.004 541>
VStem: 0 123<-81 -64 -52 231 376 659 674 688>
LayerCount: 2
Fore
SplineSet
541 688 m 1x2c
 137 688 l 2x2c
 129 688 123 682 123 674 c 1
 0 674 l 1
 0 725 l 2
 0 790 85 819 107 819 c 2x34
 541 819 l 1
 541 688 l 1x2c
647 303 m 1
 544 245 l 1
 129 245 l 1
 29 303 l 1
 129 369 l 1
 544 369 l 1
 647 303 l 1
28 317 m 1
 0 317 l 1
 0 659 l 1
 123 659 l 1
 123 376 l 1
 28 317 l 1
0 -52 m 1
 0 289 l 1
 30 289 l 1
 124 231 l 1
 124 -52 l 1
 0 -52 l 1
138 -81 m 2x64
 545 -81 l 1
 647 -183 l 1
 647 -205 l 1x64
 102 -205 l 2
 45 -205 0 -164 0 -112 c 2
 0 -64 l 1
 123 -64 l 1xa4
 123 -74 129 -81 138 -81 c 2x64
EndSplineSet
Validated: 1
EndChar

StartChar: F
Encoding: 70 70 15
Width: 895
Flags: HW
HStem: 245 124<129 544> 674 145<47.5075 123> 688 131<123.004 541>
VStem: 0 123<-52 231 376 659 674 688>
LayerCount: 2
Fore
SplineSet
541 688 m 1xb0
 137 688 l 2xb0
 129 688 123 682 123 674 c 1
 0 674 l 1
 0 725 l 2
 0 790 85 819 107 819 c 2xd0
 541 819 l 1
 541 688 l 1xb0
647 303 m 1
 544 245 l 1
 129 245 l 1
 29 303 l 1
 129 369 l 1
 544 369 l 1
 647 303 l 1
28 317 m 1
 0 317 l 1
 0 659 l 1
 123 659 l 1
 123 376 l 1
 28 317 l 1
0 -52 m 1
 0 289 l 1
 30 289 l 1
 124 231 l 1
 124 -52 l 1
 0 -52 l 1
EndSplineSet
Validated: 1
EndChar

StartChar: H
Encoding: 72 72 16
Width: 895
Flags: HW
HStem: -205 21G<70.5 116.231> -205 21G<70.5 116.231> 249 123<133 229 463 553> 799 20G<74 117>
VStem: 0 125<-150.136 238 380 773.639> 566 125<-76.9956 245 378 684>
LayerCount: 2
Fore
SplineSet
359 313 m 1x3c
 463 372 l 1
 553 372 l 1
 654 313 l 1
 654 306 l 1
 559 249 l 1
 456 249 l 1
 359 305 l 1
 359 313 l 1x3c
37 313 m 1
 133 372 l 1
 229 372 l 1
 331 313 l 1
 331 305 l 1
 229 246 l 1
 133 246 l 1
 37 304 l 1
 37 313 l 1
88 819 m 2
 105 819 l 1
 126 784 l 1
 126 380 l 1
 31 321 l 1
 0 321 l 1
 1 716 l 2
 1 773 60 819 88 819 c 2
647 326 m 1
 566 378 l 1
 566 684 l 1
 551 702 l 1
 551 708 l 1
 624 811 l 1
 630 811 l 2
 646 811 691 752 691 722 c 2
 691 326 l 1
 647 326 l 1
552 -77 m 1
 560 -77 566 -71 566 -63 c 2
 566 245 l 1
 654 298 l 1
 691 298 l 1
 691 -100 l 2
 691 -136 649 -188 632 -188 c 2
 625 -188 l 1
 552 -84 l 1
 552 -77 l 1
0 -103 m 2
 0 293 l 1
 38 293 l 1
 125 238 l 1
 125 -166 l 1
 107 -205 l 1
 89 -205 l 2xbc
 52 -205 0 -127 0 -103 c 2
EndSplineSet
Validated: 1
EndChar

StartChar: I
Encoding: 73 73 17
Width: 895
Flags: W
HStem: -205 132<189 530> 695 124<190 530>
VStem: 274 135<-60 101 520 681>
LayerCount: 2
Fore
SplineSet
123 796 m 1
 123 819 l 1
 596 819 l 1
 596 790 l 1
 530 695 l 1
 190 695 l 1
 123 796 l 1
276 520 m 1
 276 681 l 1
 407 681 l 1
 407 520 l 1
 349 369 l 1
 334 369 l 1
 276 520 l 1
189 -73 m 1
 530 -73 l 1
 595 -168 l 1
 595 -205 l 1
 124 -205 l 1
 124 -176 l 1
 189 -73 l 1
274 101 m 1
 334 246 l 1
 349 246 l 1
 409 101 l 1
 409 -60 l 1
 274 -60 l 1
 274 101 l 1
EndSplineSet
Validated: 1
EndChar

StartChar: L
Encoding: 76 76 18
Width: 895
Flags: HW
HStem: -205 141<34.9774 123> -205 124<123.004 545>
VStem: 0 123<-81 -64 -52 231 376 659>
LayerCount: 2
Fore
SplineSet
28 317 m 1x20
 0 317 l 1
 0 659 l 1
 123 659 l 1
 123 376 l 1
 28 317 l 1x20
0 -52 m 1
 0 289 l 1
 30 289 l 1
 124 231 l 1
 124 -52 l 1
 0 -52 l 1
138 -81 m 2x60
 545 -81 l 1
 647 -183 l 1
 647 -205 l 1x60
 102 -205 l 2
 45 -205 0 -164 0 -112 c 2
 0 -64 l 1
 123 -64 l 1xa0
 123 -74 129 -81 138 -81 c 2x60
EndSplineSet
Validated: 1
EndChar

StartChar: M
Encoding: 77 77 19
Width: 895
Flags: HW
HStem: -205 21G<70.5 116.231> -205 21G<70.5 116.231> 799 20G<74 117>
VStem: 0 125<-150.136 238 380 773.639> 566 125<-76.9956 245 378 684>
LayerCount: 2
Fore
SplineSet
88 819 m 2x38
 105 819 l 1
 126 784 l 1
 126 380 l 1
 31 321 l 1
 0 321 l 1
 1 716 l 2
 1 773 60 819 88 819 c 2x38
647 326 m 1
 566 378 l 1
 566 684 l 1
 551 702 l 1
 551 708 l 1
 624 811 l 1
 630 811 l 2
 646 811 691 752 691 722 c 2
 691 326 l 1
 647 326 l 1
552 -77 m 1
 560 -77 566 -71 566 -63 c 2
 566 245 l 1
 654 298 l 1
 691 298 l 1
 691 -100 l 2
 691 -136 649 -188 632 -188 c 2
 625 -188 l 1
 552 -84 l 1
 552 -77 l 1
0 -103 m 2
 0 293 l 1
 38 293 l 1
 125 238 l 1
 125 -166 l 1
 107 -205 l 1
 89 -205 l 2xb8
 52 -205 0 -127 0 -103 c 2
136 531 m 1
 136 752 l 1
 264 551 l 1
 264 522 l 1
 326 354 l 1
 326 328 l 1
 228 382 l 1
 136 531 l 1
535 690 m 1
 548 690 l 1
 548 513 l 1
 447 381 l 1
 356 328 l 1
 356 356 l 1
 434 553 l 1
 535 690 l 1
EndSplineSet
Validated: 1
EndChar

StartChar: O
Encoding: 79 79 20
Width: 895
Flags: W
HStem: -205 141<34.9774 123> -205 124<123.004 545> 674 145<47.5075 123> 688 131<123.004 541>
VStem: 0 123<-81 -64 -52 231 376 659 674 688> 552 123<-73 237 377 768.623>
LayerCount: 2
Fore
SplineSet
541 688 m 1x1c
 137 688 l 2x1c
 129 688 123 682 123 674 c 1
 0 674 l 1
 0 725 l 2
 0 790 85 819 107 819 c 2x2c
 541 819 l 1
 541 688 l 1x1c
551 819 m 1
 567 819 l 2
 611 819 675 761 675 725 c 2
 675 318 l 1
 646 318 l 1
 551 377 l 1
 551 819 l 1
28 317 m 1
 0 317 l 1
 0 659 l 1
 123 659 l 1
 123 376 l 1
 28 317 l 1
639 288 m 1
 675 288 l 1
 675 -176 l 1
 654 -176 l 1
 552 -73 l 1
 552 237 l 1
 639 288 l 1
0 -52 m 1
 0 289 l 1
 30 289 l 1
 124 231 l 1
 124 -52 l 1
 0 -52 l 1
138 -81 m 2x4c
 545 -81 l 1
 647 -183 l 1
 647 -205 l 1x4c
 102 -205 l 2
 45 -205 0 -164 0 -112 c 2
 0 -64 l 1
 123 -64 l 1x8c
 123 -74 129 -81 138 -81 c 2x4c
EndSplineSet
Validated: 1
EndChar

StartChar: P
Encoding: 80 80 21
Width: 895
Flags: HW
HStem: -205 21G<69.5 116.231> -205 21G<69.5 116.231> 246 122<132 227 460 550> 695 124<191 533>
VStem: 0 125<-152.913 236 376 767.639> 562 125<374 678>
LayerCount: 2
Fore
SplineSet
357 309 m 1x3c
 460 368 l 1
 550 368 l 1
 649 310 l 1
 649 303 l 1
 556 246 l 1
 453 246 l 1
 357 302 l 1
 357 309 l 1x3c
37 310 m 1
 132 368 l 1
 227 368 l 1
 329 310 l 1
 329 302 l 1
 227 243 l 1
 132 243 l 1
 37 301 l 1
 37 310 l 1
88 813 m 2
 104 813 l 1
 125 777 l 1
 125 376 l 1
 31 318 l 1
 0 318 l 1
 1 710 l 2
 1 767 60 813 88 813 c 2
124 796 m 1
 124 819 l 1
 599 819 l 1
 599 789 l 1
 533 695 l 1
 191 695 l 1
 124 796 l 1
643 323 m 1
 562 374 l 1
 562 678 l 1
 547 696 l 1
 547 702 l 1
 620 804 l 1
 626 804 l 2
 642 804 687 745 687 716 c 2
 687 323 l 1
 643 323 l 1
0 -104 m 2
 0 290 l 1
 38 290 l 1
 125 236 l 1
 125 -166 l 1
 107 -205 l 1
 88 -205 l 2xbc
 51 -205 0 -128 0 -104 c 2
EndSplineSet
Validated: 1
EndChar

StartChar: S
Encoding: 83 83 22
Width: 895
Flags: HW
HStem: -205 132<189 530 545 545.374> 246 125<132 226 457 547> 695 124<190 530>
VStem: 0 124<378 769.24> 559 124<-72.9956 245>
LayerCount: 2
Fore
SplineSet
355 312 m 1
 457 370 l 1
 547 370 l 1
 646 313 l 1
 646 305 l 1
 553 250 l 1
 451 250 l 1
 355 304 l 1
 355 312 l 1
37 313 m 1
 132 371 l 1
 226 371 l 1
 327 313 l 1
 327 305 l 1
 226 246 l 1
 132 246 l 1
 37 304 l 1
 37 313 l 1
87 813 m 2
 103 813 l 1
 124 778 l 1
 124 378 l 1
 30 320 l 1
 0 320 l 1
 1 710 l 2
 1 766 59 813 87 813 c 2
123 796 m 1
 123 819 l 1
 596 819 l 1
 596 790 l 1
 530 695 l 1
 190 695 l 1
 123 796 l 1
545 -73 m 1
 553 -73 559 -67 559 -59 c 2
 559 245 l 1
 646 297 l 1
 683 297 l 1
 683 -96 l 2
 683 -132 642 -182 625 -182 c 2
 617 -182 l 1
 545 -80 l 1
 545 -73 l 1
189 -73 m 1
 530 -73 l 1
 595 -168 l 1
 595 -205 l 1
 124 -205 l 1
 124 -176 l 1
 189 -73 l 1
EndSplineSet
Validated: 1
EndChar

StartChar: T
Encoding: 84 84 23
Width: 895
Flags: HW
HStem: 695 124<190 530>
VStem: 274 135<-60 101 520 681>
LayerCount: 2
Fore
SplineSet
123 796 m 1
 123 819 l 1
 596 819 l 1
 596 790 l 1
 530 695 l 1
 190 695 l 1
 123 796 l 1
276 520 m 1
 276 681 l 1
 407 681 l 1
 407 520 l 1
 349 369 l 1
 334 369 l 1
 276 520 l 1
274 101 m 1
 334 246 l 1
 349 246 l 1
 409 101 l 1
 409 -60 l 1
 274 -60 l 1
 274 101 l 1
EndSplineSet
Validated: 1
EndChar

StartChar: W
Encoding: 87 87 24
Width: 895
Flags: HW
HStem: -205 21G<70.5 116.231> -205 21G<70.5 116.231> 799 20G<74 117>
VStem: 0 125<-150.136 238 380 773.639> 566 125<-76.9956 245 378 684>
LayerCount: 2
Fore
SplineSet
88 819 m 2x38
 105 819 l 1
 126 784 l 1
 126 380 l 1
 31 321 l 1
 0 321 l 1
 1 716 l 2
 1 773 60 819 88 819 c 2x38
647 326 m 1
 566 378 l 1
 566 684 l 1
 551 702 l 1
 551 708 l 1
 624 811 l 1
 630 811 l 2
 646 811 691 752 691 722 c 2
 691 326 l 1
 647 326 l 1
552 -77 m 1
 560 -77 566 -71 566 -63 c 2
 566 245 l 1
 654 298 l 1
 691 298 l 1
 691 -100 l 2
 691 -136 649 -188 632 -188 c 2
 625 -188 l 1
 552 -84 l 1
 552 -77 l 1
0 -103 m 2
 0 293 l 1
 38 293 l 1
 125 238 l 1
 125 -166 l 1
 107 -205 l 1
 89 -205 l 2xb8
 52 -205 0 -127 0 -103 c 2
138 -131 m 1
 138 96 l 1
 233 241 l 1
 329 295 l 1
 329 267 l 1
 266 101 l 1
 266 69 l 1
 138 -131 l 1
534 -67 m 1
 422 83 l 1
 422 101 l 1
 360 267 l 1
 360 293 l 1
 449 241 l 1
 546 110 l 1
 545 -67 l 1
 534 -67 l 1
EndSplineSet
Validated: 1
EndChar

StartChar: X
Encoding: 88 88 25
Width: 895
Flags: HW
LayerCount: 2
Fore
SplineSet
136 -127 m 1
 136 98 l 1
 231 242 l 1
 325 294 l 1
 325 267 l 1
 263 103 l 1
 263 71 l 1
 136 -127 l 1
527 -63 m 1
 417 85 l 1
 417 103 l 1
 356 267 l 1
 356 293 l 1
 444 242 l 1
 539 112 l 1
 538 -63 l 1
 527 -63 l 1
135 527 m 1
 135 746 l 1
 261 547 l 1
 261 519 l 1
 322 353 l 1
 322 327 l 1
 225 380 l 1
 135 527 l 1
528 684 m 1
 542 684 l 1
 542 510 l 1
 442 380 l 1
 351 327 l 1
 351 355 l 1
 428 549 l 1
 528 684 l 1
EndSplineSet
Validated: 1
EndChar

StartChar: Y
Encoding: 89 89 26
Width: 895
Flags: HW
HStem: -205 133<190 534 549 557> 249 125<132 227 460 550> 799 20G<74 116>
VStem: 0 125<382 773.639> 563 125<-71.9956 248 381 685>
LayerCount: 2
Fore
SplineSet
358 316 m 1
 460 374 l 1
 550 374 l 1
 650 316 l 1
 650 309 l 1
 556 253 l 1
 454 253 l 1
 358 308 l 1
 358 316 l 1
37 316 m 1
 132 374 l 1
 227 374 l 1
 329 316 l 1
 329 308 l 1
 227 249 l 1
 132 249 l 1
 37 307 l 1
 37 316 l 1
88 819 m 2
 104 819 l 1
 125 784 l 1
 125 382 l 1
 31 324 l 1
 0 324 l 1
 1 716 l 2
 1 773 60 819 88 819 c 2
643 329 m 1
 563 381 l 1
 563 685 l 1
 548 703 l 1
 548 708 l 1
 621 811 l 1
 627 811 l 2
 643 811 688 752 688 723 c 2
 688 329 l 1
 643 329 l 1
549 -72 m 1
 557 -72 563 -66 563 -58 c 2
 563 248 l 1
 650 301 l 1
 688 301 l 1
 688 -95 l 2
 688 -131 646 -182 629 -182 c 2
 621 -182 l 1
 549 -80 l 1
 549 -72 l 1
190 -72 m 1
 534 -72 l 1
 599 -168 l 1
 599 -205 l 1
 125 -205 l 1
 125 -176 l 1
 190 -72 l 1
EndSplineSet
Validated: 1
EndChar

StartChar: colon
Encoding: 58 58 27
Width: 200
Flags: HW
HStem: 68 127<42.2 135.23> 417 127<42.2 135.23>
VStem: 27 123<83.7232 179.707 432.293 528.277>
LayerCount: 2
Fore
SplineSet
38 480 m 0
 38 515 66 544 100 544 c 0
 134 544 162 515 162 480 c 0
 162 445 134 417 100 417 c 0
 66 417 38 445 38 480 c 0
38 132 m 0
 38 167 66 195 100 195 c 0
 134 195 162 167 162 132 c 0
 162 97 134 68 100 68 c 0
 66 68 38 97 38 132 c 0
100 132 m 1024
100 480 m 1024
EndSplineSet
EndChar

StartChar: hyphen
Encoding: 45 45 28
Width: 895
Flags: HW
HStem: 245 124<129 544>
LayerCount: 2
Fore
SplineSet
647 303 m 1
 544 245 l 1
 129 245 l 1
 29 303 l 1
 129 369 l 1
 544 369 l 1
 647 303 l 1
EndSplineSet
Validated: 1
EndChar

StartChar: d
Encoding: 100 100 30
Width: 895
Flags: HW
HStem: -205 134<192 538 553 561> 256 123<134 229 464 555> 799 20G<611.631 640>
VStem: 0 126<-144.136 245> 567 126<-70.9956 252 386 692>
LayerCount: 2
Fore
SplineSet
361 320 m 1
 464 379 l 1
 555 379 l 1
 656 320 l 1
 656 313 l 1
 561 256 l 1
 458 256 l 1
 361 312 l 1
 361 320 l 1
37 320 m 1
 134 379 l 1
 229 379 l 1
 332 320 l 1
 332 313 l 1
 229 253 l 1
 134 253 l 1
 37 311 l 1
 37 320 l 1
649 334 m 1
 567 386 l 1
 567 692 l 1
 552 711 l 1
 552 716 l 1
 626 819 l 1
 632 819 l 2
 648 819 693 761 693 731 c 2
 693 334 l 1
 649 334 l 1
553 -71 m 1
 561 -71 567 -65 567 -57 c 2
 567 252 l 1
 656 305 l 1
 693 305 l 1
 693 -94 l 2
 693 -130 651 -182 634 -182 c 2
 627 -182 l 1
 553 -78 l 1
 553 -71 l 1
192 -71 m 1
 538 -71 l 1
 604 -168 l 1
 604 -205 l 1
 126 -205 l 1
 126 -175 l 1
 192 -71 l 1
0 -97 m 2
 0 300 l 1
 38 300 l 1
 126 245 l 1
 126 -160 l 1
 108 -199 l 1
 89 -199 l 2
 52 -199 0 -121 0 -97 c 2
EndSplineSet
Validated: 1
EndChar

StartChar: i
Encoding: 105 105 31
Width: 895
Flags: W
HStem: -205 134<192 538 553 561> 256 123<134 229 464 555> 799 20G<611.631 640>
VStem: 0 126<-144.136 245> 567 126<-70.9956 252 386 692>
LayerCount: 2
Fore
SplineSet
361 320 m 1
 464 379 l 1
 555 379 l 1
 656 320 l 1
 656 313 l 1
 561 256 l 1
 458 256 l 1
 361 312 l 1
 361 320 l 1
37 320 m 1
 134 379 l 1
 229 379 l 1
 332 320 l 1
 332 313 l 1
 229 253 l 1
 134 253 l 1
 37 311 l 1
 37 320 l 1
649 334 m 1
 567 386 l 1
 567 692 l 1
 552 711 l 1
 552 716 l 1
 626 819 l 1
 632 819 l 2
 648 819 693 761 693 731 c 2
 693 334 l 1
 649 334 l 1
553 -71 m 1
 561 -71 567 -65 567 -57 c 2
 567 252 l 1
 656 305 l 1
 693 305 l 1
 693 -94 l 2
 693 -130 651 -182 634 -182 c 2
 627 -182 l 1
 553 -78 l 1
 553 -71 l 1
192 -71 m 1
 538 -71 l 1
 604 -168 l 1
 604 -205 l 1
 126 -205 l 1
 126 -175 l 1
 192 -71 l 1
0 -97 m 2
 0 300 l 1
 38 300 l 1
 126 245 l 1
 126 -160 l 1
 108 -199 l 1
 89 -199 l 2
 52 -199 0 -121 0 -97 c 2
EndSplineSet
Validated: 1
EndChar
